<svg width="20" height="20" viewBox="0 0 20 20" fill="none" xmlns="http://www.w3.org/2000/svg">
<path d="M9.99984 13.3334C11.8408 13.3334 13.3332 11.841 13.3332 10.0001C13.3332 8.15913 11.8408 6.66675 9.99984 6.66675C8.15889 6.66675 6.6665 8.15913 6.6665 10.0001C6.6665 11.841 8.15889 13.3334 9.99984 13.3334Z" stroke="#0061FF" stroke-linecap="round" stroke-linejoin="round"/>
<path d="M15.9727 6.6167L15.9179 6.52182C15.7667 6.26014 15.6895 5.96229 15.6946 5.66013L15.7196 4.17778C15.7247 3.87484 15.5649 3.593 15.3024 3.44173L13.0219 2.12756C12.76 1.97666 12.437 1.97937 12.1777 2.13462L10.9118 2.89261C10.6531 3.04753 10.3571 3.12935 10.0556 3.12935H9.94583C9.64361 3.12935 9.34708 3.04717 9.08797 2.89162L7.81625 2.12814C7.55605 1.97193 7.2315 1.96953 6.96901 2.12187L4.69569 3.44128C4.43445 3.59291 4.27571 3.87403 4.28079 4.17604L4.30576 5.66013C4.31084 5.96229 4.23367 6.26014 4.08252 6.52182L4.02844 6.61543C3.8772 6.87726 3.65758 7.093 3.39311 7.23956L2.09737 7.95762C1.83179 8.1048 1.66728 8.38478 1.66797 8.68841L1.67394 11.3149C1.67462 11.6167 1.83842 11.8946 2.10215 12.0413L3.39167 12.7586C3.65704 12.9063 3.87704 13.1236 4.02789 13.3871L4.08583 13.4884C4.23486 13.7487 4.31085 14.0445 4.30579 14.3444L4.28084 15.8221C4.27573 16.125 4.43546 16.4069 4.69799 16.5582L6.97852 17.8723C7.24037 18.0232 7.5634 18.0205 7.82269 17.8652L9.08859 17.1073C9.34732 16.9523 9.64323 16.8705 9.94479 16.8705H10.0545C10.3568 16.8705 10.6533 16.9527 10.9124 17.1083L12.1841 17.8717C12.4443 18.0279 12.7689 18.0303 13.0314 17.878L15.3047 16.5586C15.5659 16.407 15.7247 16.1258 15.7196 15.8238L15.6946 14.3397C15.6895 14.0376 15.7667 13.7397 15.9179 13.478L15.9719 13.3844C16.1232 13.1226 16.3428 12.9069 16.6073 12.7603L17.903 12.0422C18.1686 11.8951 18.3331 11.6151 18.3324 11.3115L18.3264 8.68494C18.3258 8.38315 18.162 8.10532 17.8982 7.9586L16.6056 7.23951C16.3422 7.09297 16.1234 6.87772 15.9727 6.6167Z" stroke="#0061FF" stroke-linecap="round" stroke-linejoin="round"/>
</svg>
