<svg width="25" height="25" viewBox="0 0 25 25" fill="none" xmlns="http://www.w3.org/2000/svg">
<g id="Bathtub">
<path id="Vector" d="M6.87122 18.9091V21.1591" stroke="#6D737A" stroke-width="1.60606" stroke-linecap="round" stroke-linejoin="round"/>
<path id="Vector_2" d="M17.3712 18.9091V21.1591" stroke="#6D737A" stroke-width="1.60606" stroke-linecap="round" stroke-linejoin="round"/>
<path id="Vector_3" d="M5.37122 10.6591V5.78406C5.37122 5.28678 5.56876 4.80986 5.92039 4.45823C6.27202 4.1066 6.74894 3.90906 7.24622 3.90906C7.7435 3.90906 8.22041 4.1066 8.57204 4.45823C8.92367 4.80986 9.12122 5.28678 9.12122 5.78406" stroke="#6D737A" stroke-width="1.60606" stroke-linecap="round" stroke-linejoin="round"/>
<path id="Vector_4" d="M18.8712 9.90906H12.8712V14.4091H18.8712V9.90906Z" stroke="#6D737A" stroke-width="1.60606" stroke-linecap="round" stroke-linejoin="round"/>
<path id="Vector_5" d="M18.8712 10.6591H21.8712C22.0701 10.6591 22.2609 10.7381 22.4015 10.8787C22.5422 11.0194 22.6212 11.2101 22.6212 11.4091V14.4091C22.6212 15.6025 22.1471 16.7471 21.3032 17.591C20.4593 18.435 19.3147 18.9091 18.1212 18.9091H6.12122C4.92774 18.9091 3.78315 18.435 2.93924 17.591C2.09532 16.7471 1.62122 15.6025 1.62122 14.4091V11.4091C1.62122 11.2101 1.70023 11.0194 1.84089 10.8787C1.98154 10.7381 2.1723 10.6591 2.37122 10.6591H12.8712" stroke="#6D737A" stroke-width="1.60606" stroke-linecap="round" stroke-linejoin="round"/>
</g>
</svg>
