<svg width="43" height="25" viewBox="0 0 43 25" fill="none" xmlns="http://www.w3.org/2000/svg">
<path d="M2.19696 12.1591H23.197" stroke="#6D737A" stroke-width="1.60606" stroke-linecap="round" stroke-linejoin="round"/>
<path d="M21.697 18.1591V20.4091C21.697 20.608 21.6179 20.7987 21.4773 20.9394C21.3366 21.08 21.1459 21.1591 20.947 21.1591H18.697C18.498 21.1591 18.3073 21.08 18.1666 20.9394C18.026 20.7987 17.947 20.608 17.947 20.4091V18.1591" stroke="#6D737A" stroke-width="1.60606" stroke-linecap="round" stroke-linejoin="round"/>
<path d="M7.44696 18.1591V20.4091C7.44696 20.608 7.36794 20.7987 7.22729 20.9394C7.08664 21.08 6.89587 21.1591 6.69696 21.1591H4.44696C4.24805 21.1591 4.05728 21.08 3.91663 20.9394C3.77598 20.7987 3.69696 20.608 3.69696 20.4091V18.1591" stroke="#6D737A" stroke-width="1.60606" stroke-linecap="round" stroke-linejoin="round"/>
<path d="M6.69696 15.1591H8.19696" stroke="#6D737A" stroke-width="1.60606" stroke-linecap="round" stroke-linejoin="round"/>
<path d="M17.197 15.1591H18.697" stroke="#6D737A" stroke-width="1.60606" stroke-linecap="round" stroke-linejoin="round"/>
<path d="M21.697 12.1591L18.8938 5.85906C18.8357 5.72578 18.74 5.61228 18.6185 5.53238C18.497 5.45249 18.3549 5.40964 18.2095 5.40906H7.18446C7.03904 5.40964 6.89693 5.45249 6.77542 5.53238C6.65391 5.61228 6.55825 5.72578 6.50009 5.85906L3.69696 12.1591V18.1591H21.697V12.1591Z" stroke="#6D737A" stroke-width="1.60606" stroke-linecap="round" stroke-linejoin="round"/>
<path d="M31.9962 16.6363V15.2159L37.0246 7.27269H38.1439V9.3636H37.4337L33.8371 15.0568V15.1477H40.7292V16.6363H31.9962ZM37.5133 18.9091V16.2045L37.5246 15.5568V7.27269H39.1894V18.9091H37.5133Z" fill="#6D737A"/>
</svg>
