<svg width="49" height="49" viewBox="0 0 49 49" fill="none" xmlns="http://www.w3.org/2000/svg">
<g id="Frame 5113" filter="url(#filter0_d_1_1602)">
<path id="Rectangle 5.4" d="M4 10.5C4 4.97715 8.47715 0.5 14 0.5H35C40.5228 0.5 45 4.97715 45 10.5V30.5C45 36.0228 40.5228 40.5 35 40.5H14C8.47715 40.5 4 36.0228 4 30.5V10.5Z" fill="white"/>
<path id="options" fill-rule="evenodd" clip-rule="evenodd" d="M26.5444 12.7641C26.5444 13.9753 25.5274 14.9582 24.2722 14.9582C23.017 14.9582 22 13.9753 22 12.7641C22 11.552 23.017 10.57 24.2722 10.57C25.5274 10.57 26.5444 11.552 26.5444 12.7641ZM26.5444 20.535C26.5444 21.739 25.5274 22.7146 24.2722 22.7146C23.017 22.7146 22 21.739 22 20.535C22 19.331 23.017 18.3554 24.2722 18.3554C25.5274 18.3554 26.5444 19.331 26.5444 20.535ZM26.5444 28.3059C26.5444 29.518 25.5274 30.5 24.2722 30.5C23.017 30.5 22 29.518 22 28.3059C22 27.0947 23.017 26.1118 24.2722 26.1118C25.5274 26.1118 26.5444 27.0947 26.5444 28.3059Z" fill="#0061FF"/>
</g>
<defs>
<filter id="filter0_d_1_1602" x="0" y="0.5" width="49" height="48" filterUnits="userSpaceOnUse" color-interpolation-filters="sRGB">
<feFlood flood-opacity="0" result="BackgroundImageFix"/>
<feColorMatrix in="SourceAlpha" type="matrix" values="0 0 0 0 0 0 0 0 0 0 0 0 0 0 0 0 0 0 127 0" result="hardAlpha"/>
<feOffset dy="4"/>
<feGaussianBlur stdDeviation="2"/>
<feComposite in2="hardAlpha" operator="out"/>
<feColorMatrix type="matrix" values="0 0 0 0 0 0 0 0 0 0 0 0 0 0 0 0 0 0 0.05 0"/>
<feBlend mode="normal" in2="BackgroundImageFix" result="effect1_dropShadow_1_1602"/>
<feBlend mode="normal" in="SourceGraphic" in2="effect1_dropShadow_1_1602" result="shape"/>
</filter>
</defs>
</svg>
