<svg width="66" height="52" viewBox="0 0 66 52" fill="none" xmlns="http://www.w3.org/2000/svg">
<path opacity="0.922" fill-rule="evenodd" clip-rule="evenodd" d="M28.8813 0.239445C29.6055 0.223999 30.0258 0.499566 30.1422 1.06614C29.4275 2.09975 28.7761 3.16756 28.1878 4.2696C27.8465 5.31115 27.9726 6.31008 28.5661 7.26639C29.3159 8.19097 30.1144 9.08655 30.9618 9.95316C32.4859 11.9222 32.6961 13.9889 31.5922 16.1534C31.1257 17.074 30.5163 17.918 29.7639 18.6852C28.8718 19.0085 28.3254 18.7847 28.1247 18.0135C28.6128 17.1792 29.1383 16.3525 29.7009 15.5334C30.5911 13.8675 30.4229 12.283 29.1965 10.7799C28.1473 9.74948 27.2227 8.64719 26.4225 7.47306C25.7727 5.89615 25.8568 4.34608 26.6747 2.82288C27.2091 1.82149 27.9446 0.960348 28.8813 0.239445Z" fill="#0A0A0A"/>
<path opacity="0.92" fill-rule="evenodd" clip-rule="evenodd" d="M18.542 3.64946C19.881 3.50183 20.3224 3.94962 19.8659 4.99285C18.9554 5.65782 18.5352 6.48452 18.605 7.47295C18.7412 7.7309 18.9094 7.97202 19.1094 8.19631C22.3421 10.4314 22.5312 12.8253 19.6768 15.3783C18.8132 15.6883 18.2668 15.4644 18.0376 14.7066C18.4917 14.0064 18.975 13.3175 19.4876 12.6398C19.8046 11.9277 19.6785 11.2732 19.1094 10.6764C18.3475 10.0178 17.6331 9.32893 16.9658 8.60966C16.2919 7.31873 16.418 6.07868 17.3441 4.88951C17.7704 4.48908 18.1696 4.07573 18.542 3.64946Z" fill="#0A0A0A"/>
<path opacity="0.92" fill-rule="evenodd" clip-rule="evenodd" d="M38.5902 3.64948C39.8472 3.49077 40.3305 3.90412 40.0403 4.88953C39.5222 5.31422 39.1018 5.79647 38.7794 6.33625C38.4254 7.08148 38.5935 7.73594 39.2837 8.29966C42.3046 10.423 42.5358 12.7309 39.9772 15.2233C39.378 15.6501 38.8106 15.6155 38.275 15.1199C38.1909 14.8443 38.1909 14.5688 38.275 14.2932C38.7448 13.8047 39.1651 13.288 39.5359 12.7432C39.8733 11.9932 39.7472 11.3043 39.1576 10.6764C38.1654 9.9327 37.3669 9.07153 36.7619 8.09299C36.4633 7.2062 36.5473 6.34505 37.0141 5.50955C37.4475 4.83244 37.9729 4.21242 38.5902 3.64948Z" fill="#0A0A0A"/>
<path opacity="0.933" fill-rule="evenodd" clip-rule="evenodd" d="M8.07652 21.6303C17.9117 21.613 27.7467 21.6303 37.5816 21.6819C38.1178 22.0353 38.223 22.4659 37.8968 22.9736C37.7829 23.0977 37.6359 23.1839 37.4555 23.232C27.6942 23.2326 17.9433 23.3014 8.20261 23.4387C8.1237 23.5162 8.06065 23.6023 8.01347 23.697C7.8969 26.4212 7.93894 29.1424 8.13956 31.8607C8.33231 32.7337 8.58449 33.5948 8.8961 34.4441C9.49984 35.6913 10.1513 36.9141 10.8505 38.1126C10.8396 38.6554 10.5034 38.9483 9.84177 38.9909C9.44348 38.9233 9.12826 38.751 8.8961 38.4743C7.27196 36.2033 6.30528 33.7577 5.99603 31.1373C5.91197 28.5194 5.91197 25.9015 5.99603 23.2837C6.34303 22.4308 7.03653 21.8796 8.07652 21.6303Z" fill="#0A0A0A"/>
<path opacity="0.933" fill-rule="evenodd" clip-rule="evenodd" d="M65.1952 28.9672C65.1952 30.724 65.1952 32.4807 65.1952 34.2374C64.6085 36.9385 62.9273 39.0569 60.1516 40.5927C56.2466 42.4314 52.3379 42.4486 48.4253 40.6444C46.277 42.6984 43.7132 44.3001 40.7338 45.4495C46.5865 45.4506 52.4286 45.5194 58.2603 45.6562C58.7411 48.1394 57.5643 49.8962 54.7298 50.9264C54.4413 51.0114 54.147 51.0803 53.8472 51.1331C51.7501 51.294 49.6486 51.3285 47.5427 51.2364C46.6566 50.8088 46.5725 50.2921 47.2905 49.6864C49.1398 49.652 50.9891 49.6175 52.8384 49.583C54.563 49.3574 55.7398 48.5823 56.3689 47.258C38.5062 47.1202 20.6435 47.1202 2.78074 47.258C3.39681 48.5965 4.57365 49.3715 6.31125 49.583C18.9202 49.6175 31.5292 49.652 44.1382 49.6864C44.3694 49.7381 44.5165 49.8586 44.5795 50.0481C44.8307 50.6512 44.5995 51.0474 43.886 51.2364C37.6026 51.2537 31.319 51.2709 25.0356 51.2881C18.4546 51.3037 11.8768 51.252 5.30253 51.1331C2.84195 50.6149 1.28685 49.3576 0.637207 47.3613C0.637207 46.879 0.637207 46.3968 0.637207 45.9146C0.740151 45.7447 0.908271 45.6242 1.14157 45.5529C6.85764 45.5185 12.5737 45.484 18.2898 45.4495C16.0833 44.5371 14.087 43.3831 12.3005 41.9877C11.9645 41.2985 12.2377 40.8507 13.1201 40.6444C13.3341 40.6856 13.5441 40.7373 13.7506 40.7994C17.3241 43.6408 21.6111 45.1909 26.6117 45.4495C29.6101 45.5864 32.5943 45.483 35.5641 45.1395C43.3442 43.5511 48.3669 39.6072 50.6319 33.3074C50.868 32.5249 51.0361 31.7327 51.1362 30.9306C51.2203 28.5195 51.2203 26.1082 51.1362 23.697C51.0732 23.5076 50.926 23.387 50.6949 23.3353C47.4166 23.3009 44.1382 23.2664 40.8599 23.232C40.0722 22.7655 40.0302 22.2489 40.7338 21.6819C44.1802 21.613 47.6268 21.613 51.0732 21.6819C52.2781 21.9498 53.0137 22.5871 53.2797 23.5937C57.7395 22.3967 61.3121 23.3613 63.9974 26.4871C64.5369 27.2819 64.9363 28.1086 65.1952 28.9672ZM55.4863 24.7304C58.85 24.5469 61.2668 25.6836 62.7365 28.1405C63.0647 28.803 63.2328 29.492 63.2408 30.2073C63.328 31.5187 63.286 32.8277 63.1148 34.1341C62.2663 37.4129 59.8497 39.428 55.8646 40.1793C53.6183 40.5119 51.5168 40.2019 49.5601 39.2493C49.9452 38.7721 50.3444 38.3071 50.7579 37.8542C54.3907 39.2128 57.4589 38.6273 59.9625 36.0975C60.4376 35.4562 60.7738 34.7674 60.9712 34.0308C61.2401 32.3906 61.219 30.7543 60.9082 29.1222C59.9669 27.1512 58.2017 26.2901 55.6124 26.5388C54.8153 26.7395 54.0166 26.9289 53.2167 27.1072C53.1958 26.5206 53.2168 25.935 53.2797 25.3504C54.0147 25.1095 54.7503 24.9029 55.4863 24.7304ZM55.8646 28.1405C57.3417 27.9963 58.3715 28.4785 58.9538 29.5873C59.2003 30.9985 59.2003 32.4108 58.9538 33.8241C57.7615 36.4698 55.5129 37.3826 52.208 36.5625C51.9489 36.4915 51.7388 36.3709 51.5775 36.2008C52.7516 33.8873 53.319 31.4761 53.2797 28.9672C54.1577 28.7013 55.0193 28.4257 55.8646 28.1405Z" fill="#0A0A0A"/>
</svg>
