<svg width="66" height="53" viewBox="0 0 66 53" fill="none" xmlns="http://www.w3.org/2000/svg">
<g id="Group">
<path id="Vector" opacity="0.974" fill-rule="evenodd" clip-rule="evenodd" d="M65.4559 15.0802C65.4559 27.2916 65.4559 39.503 65.4559 51.7144C65.2056 52.0726 64.8254 52.2968 64.3153 52.3871C43.4477 52.4561 22.5803 52.4561 1.71268 52.3871C1.20266 52.2968 0.822481 52.0726 0.572144 51.7144C0.572144 39.503 0.572144 27.2916 0.572144 15.0802C0.753542 14.8798 0.964752 14.6901 1.20577 14.5111C11.491 9.8804 21.7558 5.22351 32.0002 0.540378C32.7821 0.186473 33.5424 0.220968 34.2813 0.643865C44.4411 5.29251 54.6214 9.9149 64.8222 14.5111C65.0633 14.6901 65.2745 14.8798 65.4559 15.0802ZM32.7606 3.0758C33.1312 3.07164 33.4691 3.15788 33.7744 3.33451C43.2788 7.66369 52.7833 11.9929 62.2877 16.3221C62.4144 27.5329 62.4566 38.744 62.4144 49.9552C60.5557 49.9552 58.6972 49.9552 56.8385 49.9552C56.9012 40.5984 56.8379 31.2502 56.6484 21.9103C56.4583 21.7551 56.2682 21.5999 56.0781 21.4446C40.7443 21.3756 25.4104 21.3756 10.0766 21.4446C9.71754 21.5999 9.44296 21.8241 9.25288 22.1173C9.18951 31.3965 9.16839 40.6758 9.18951 49.9552C7.33086 49.9552 5.47222 49.9552 3.61357 49.9552C3.57133 38.744 3.61357 27.5329 3.74029 16.3221C13.4421 11.93 23.1154 7.51459 32.7606 3.0758ZM12.2309 23.8766C26.0863 23.8766 39.9417 23.8766 53.7971 23.8766C53.7971 25.3944 53.7971 26.9121 53.7971 28.43C39.9417 28.43 26.0863 28.43 12.2309 28.43C12.2309 26.9121 12.2309 25.3944 12.2309 23.8766ZM12.2309 30.9137C26.0863 30.9137 39.9417 30.9137 53.7971 30.9137C53.7971 32.4315 53.7971 33.9492 53.7971 35.4671C39.9417 35.4671 26.0863 35.4671 12.2309 35.4671C12.2309 33.9492 12.2309 32.4315 12.2309 30.9137ZM12.2309 37.9507C26.0863 37.9507 39.9417 37.9507 53.7971 37.9507C53.7971 39.4686 53.7971 40.9863 53.7971 42.5041C39.9417 42.5041 26.0863 42.5041 12.2309 42.5041C12.2309 40.9863 12.2309 39.4686 12.2309 37.9507ZM12.2309 44.9878C26.0863 44.9878 39.9417 44.9878 53.7971 44.9878C53.7971 46.6436 53.7971 48.2994 53.7971 49.9552C39.9417 49.9552 26.0863 49.9552 12.2309 49.9552C12.2309 48.2994 12.2309 46.6436 12.2309 44.9878Z" fill="#0A0A0A"/>
</g>
</svg>
