<svg width="66" height="49" viewBox="0 0 66 49" fill="none" xmlns="http://www.w3.org/2000/svg">
<g id="Group">
<path id="Vector" opacity="0.965" fill-rule="evenodd" clip-rule="evenodd" d="M11.7634 0.663639C26.0018 0.645238 40.2401 0.663639 54.4785 0.718832C56.8002 1.10593 58.3096 2.22818 59.0068 4.08559C59.204 9.23397 59.2716 14.3853 59.2096 19.5396C62.5392 19.7011 64.6344 21.0992 65.4952 23.7342C65.5853 31.866 65.5853 39.9976 65.4952 48.1294C65.4276 48.3317 65.2698 48.4606 65.0221 48.5158C62.9043 48.5894 60.7866 48.5894 58.6689 48.5158C58.5451 48.4745 58.4323 48.4193 58.3309 48.3502C58.1316 46.2263 58.064 44.0922 58.1282 41.9478C41.4567 41.9478 24.7851 41.9478 8.11367 41.9478C8.13619 44.0087 8.11366 46.0692 8.04608 48.1294C7.93344 48.295 7.77573 48.4238 7.57297 48.5158C5.45524 48.5894 3.33751 48.5894 1.21978 48.5158C0.971963 48.4606 0.814255 48.3317 0.746668 48.1294C0.656547 40.108 0.656547 32.0868 0.746668 24.0654C1.51471 21.3222 3.60992 19.8135 7.03227 19.5396C6.97018 14.3853 7.03776 9.23397 7.23504 4.08559C7.95585 2.2268 9.4653 1.08615 11.7634 0.663639ZM12.0337 2.54019C26.278 2.48595 40.5163 2.54114 54.7488 2.70577C55.9865 3.12646 56.6849 3.88076 56.844 4.96867C56.9116 9.82553 56.9342 14.6825 56.9116 19.5396C53.9828 19.5396 51.0541 19.5396 48.1253 19.5396C48.1478 18.288 48.1253 17.0369 48.0577 15.7865C47.8889 14.2409 47.0102 13.045 45.4218 12.1989C44.7821 11.9267 44.1063 11.7427 43.3942 11.647C36.5453 11.5734 29.6966 11.5734 22.8477 11.647C20.7402 11.9691 19.2758 12.9441 18.4545 14.5722C18.3268 14.9711 18.2366 15.3759 18.1842 15.7865C18.1166 17.0369 18.094 18.288 18.1166 19.5396C15.1877 19.5396 12.2591 19.5396 9.33024 19.5396C9.3077 14.6825 9.33024 9.82553 9.39783 4.96867C9.6401 3.68602 10.5187 2.87653 12.0337 2.54019ZM23.118 13.4684C29.9731 13.4152 36.822 13.4703 43.6645 13.6339C44.6456 13.9567 45.299 14.5271 45.6245 15.3449C45.8135 16.7373 45.8811 18.1356 45.8273 19.5396C37.3563 19.5396 28.8855 19.5396 20.4145 19.5396C20.392 18.3248 20.4145 17.1105 20.4821 15.8968C20.7244 14.6142 21.603 13.8047 23.118 13.4684ZM6.3564 21.4161C24.2446 21.3977 42.1326 21.4161 60.0206 21.4713C61.7103 21.8209 62.7691 22.6855 63.1972 24.0654C63.3938 28.1095 63.4613 32.1568 63.4 36.2078C43.259 36.2078 23.118 36.2078 2.97704 36.2078C2.95451 32.2337 2.97704 28.2598 3.04463 24.2861C3.48396 22.8054 4.58788 21.8487 6.3564 21.4161ZM2.84187 37.9739C23.0279 37.9739 43.214 37.9739 63.4 37.9739C63.4 38.7099 63.4 39.4457 63.4 40.1817C43.214 40.1817 23.0279 40.1817 2.84187 40.1817C2.84187 39.4457 2.84187 38.7099 2.84187 37.9739ZM2.84187 41.9478C3.83314 41.9478 4.82443 41.9478 5.81571 41.9478C5.81571 43.5668 5.81571 45.1858 5.81571 46.8048C4.82443 46.8048 3.83314 46.8048 2.84187 46.8048C2.84187 45.1858 2.84187 43.5668 2.84187 41.9478ZM60.4261 41.9478C61.4174 41.9478 62.4087 41.9478 63.4 41.9478C63.4 43.5668 63.4 45.1858 63.4 46.8048C62.4087 46.8048 61.4174 46.8048 60.4261 46.8048C60.4261 45.1858 60.4261 43.5668 60.4261 41.9478Z" fill="#0A0A0A"/>
</g>
</svg>
