<svg width="84" height="58" viewBox="0 0 84 58" fill="none" xmlns="http://www.w3.org/2000/svg">
<rect width="84" height="48" rx="4" fill="#4A60A1"/>
<path d="M25.7237 30V18.3636H29.8714C30.773 18.3636 31.5211 18.5189 32.1158 18.8295C32.7143 19.1402 33.1612 19.5701 33.4567 20.1193C33.7521 20.6648 33.8999 21.2955 33.8999 22.0114C33.8999 22.7235 33.7502 23.3504 33.451 23.892C33.1555 24.4299 32.7086 24.8485 32.1101 25.1477C31.5154 25.447 30.7673 25.5966 29.8658 25.5966H26.7237V24.0852H29.7067C30.2749 24.0852 30.737 24.0038 31.093 23.8409C31.4529 23.678 31.7161 23.4413 31.8828 23.1307C32.0495 22.8201 32.1328 22.447 32.1328 22.0114C32.1328 21.572 32.0476 21.1913 31.8771 20.8693C31.7105 20.5473 31.4472 20.3011 31.0874 20.1307C30.7313 19.9564 30.2635 19.8693 29.6839 19.8693H27.4794V30H25.7237ZM31.468 24.75L34.343 30H32.343L29.5249 24.75H31.468ZM39.5518 30.1761C38.692 30.1761 37.9515 29.9924 37.3303 29.625C36.7128 29.2538 36.2356 28.733 35.8984 28.0625C35.5651 27.3883 35.3984 26.5985 35.3984 25.6932C35.3984 24.7992 35.5651 24.0114 35.8984 23.3295C36.2356 22.6477 36.7053 22.1155 37.3075 21.733C37.9136 21.3504 38.6219 21.1591 39.4325 21.1591C39.925 21.1591 40.4022 21.2405 40.8643 21.4034C41.3265 21.5663 41.7412 21.822 42.1087 22.1705C42.4761 22.5189 42.7659 22.9716 42.978 23.5284C43.1901 24.0814 43.2962 24.7538 43.2962 25.5455V26.1477H36.3587V24.875H41.6314C41.6314 24.428 41.5405 24.0322 41.3587 23.6875C41.1768 23.339 40.9212 23.0644 40.5916 22.8636C40.2659 22.6629 39.8833 22.5625 39.4439 22.5625C38.9666 22.5625 38.55 22.6799 38.1939 22.9148C37.8416 23.1458 37.5689 23.4489 37.3757 23.8239C37.1863 24.1951 37.0916 24.5985 37.0916 25.0341V26.0284C37.0916 26.6117 37.1939 27.108 37.3984 27.517C37.6068 27.9261 37.8965 28.2386 38.2678 28.4545C38.639 28.6667 39.0727 28.7727 39.5689 28.7727C39.8909 28.7727 40.1844 28.7273 40.4496 28.6364C40.7147 28.5417 40.9439 28.4015 41.1371 28.2159C41.3303 28.0303 41.478 27.8011 41.5803 27.5284L43.1882 27.8182C43.0594 28.2917 42.8284 28.7064 42.495 29.0625C42.1655 29.4148 41.7507 29.6894 41.2507 29.8864C40.7545 30.0795 40.1882 30.1761 39.5518 30.1761ZM46.88 24.8182V30H45.1811V21.2727H46.8118V22.6932H46.9197C47.1205 22.2311 47.4349 21.8598 47.8629 21.5795C48.2947 21.2992 48.8383 21.1591 49.4936 21.1591C50.0883 21.1591 50.6091 21.2841 51.0561 21.5341C51.5031 21.7803 51.8497 22.1477 52.0959 22.6364C52.3421 23.125 52.4652 23.7292 52.4652 24.4489V30H50.7663V24.6534C50.7663 24.0208 50.6016 23.5265 50.272 23.1705C49.9425 22.8106 49.4898 22.6307 48.9141 22.6307C48.5201 22.6307 48.1697 22.7159 47.8629 22.8864C47.5599 23.0568 47.3194 23.3068 47.1413 23.6364C46.9671 23.9621 46.88 24.3561 46.88 24.8182ZM58.8175 21.2727V22.6364H54.0504V21.2727H58.8175ZM55.3288 19.1818H57.0277V27.4375C57.0277 27.767 57.0769 28.0152 57.1754 28.1818C57.2739 28.3447 57.4008 28.4564 57.5561 28.517C57.7152 28.5739 57.8875 28.6023 58.0732 28.6023C58.2095 28.6023 58.3288 28.5928 58.4311 28.5739C58.5334 28.5549 58.6129 28.5398 58.6697 28.5284L58.9766 29.9318C58.8781 29.9697 58.7379 30.0076 58.5561 30.0455C58.3743 30.0871 58.147 30.1098 57.8743 30.1136C57.4273 30.1212 57.0107 30.0417 56.6243 29.875C56.2379 29.7083 55.9254 29.4508 55.6868 29.1023C55.4482 28.7538 55.3288 28.3163 55.3288 27.7898V19.1818Z" fill="white"/>
<path d="M42 58L33.3397 43L50.6603 43L42 58Z" fill="#4A60A1"/>
</svg>
