<svg width="65" height="52" viewBox="0 0 65 52" fill="none" xmlns="http://www.w3.org/2000/svg">
<path opacity="0.963" fill-rule="evenodd" clip-rule="evenodd" d="M64.9954 26.3044C64.9954 26.8563 64.9954 27.4083 64.9954 27.9602C64.7264 28.5375 64.3267 29.0549 63.7958 29.5125C63.7781 32.1016 63.6939 34.6888 63.5433 37.274C62.8889 40.9185 60.8475 43.9023 57.4191 46.2256C58.1729 47.4784 58.9095 48.7374 59.6288 50.0028C59.7685 50.8432 59.3266 51.3261 58.303 51.4516C57.8219 51.4011 57.422 51.2286 57.1034 50.9342C56.3878 49.7614 55.6724 48.5885 54.9568 47.4157C52.8955 48.36 50.6858 48.9292 48.3275 49.1232C37.889 49.1922 27.4506 49.1922 17.0121 49.1232C14.6539 48.9292 12.4441 48.36 10.3828 47.4157C9.64243 48.7159 8.82166 49.9749 7.92055 51.1929C6.69003 51.6504 5.9324 51.34 5.64765 50.2615C6.33533 48.8927 7.09296 47.5474 7.92055 46.2256C4.48873 43.8961 2.44733 40.9123 1.79636 37.274C1.64569 34.6888 1.5615 32.1016 1.54382 29.5125C0.977614 29.0315 0.577754 28.4796 0.344238 27.8567C0.344238 27.3393 0.344238 26.8219 0.344238 26.3044C0.963819 24.7026 2.31072 23.8402 4.38494 23.7173C4.36389 17.232 4.38494 10.7469 4.44807 4.2618C5.05838 2.38179 6.51051 1.1917 8.80445 0.691517C11.582 0.485884 14.36 0.485884 17.1384 0.691517C19.7934 1.4023 21.2244 2.90286 21.4316 5.19318C23.8033 5.77442 25.2976 7.05076 25.9143 9.02218C25.9985 10.402 25.9985 11.7819 25.9143 13.1616C25.7249 13.4548 25.4512 13.6791 25.0935 13.8343C21.6421 13.9033 18.1906 13.9033 14.7392 13.8343C14.2 13.7029 13.8844 13.4096 13.7922 12.9547C13.708 11.7819 13.708 10.6089 13.7922 9.43612C14.2942 7.21367 15.8726 5.79935 18.5274 5.19318C18.3945 3.79062 17.4685 3.01447 15.7494 2.86473C13.6399 2.77075 11.5354 2.80525 9.43581 2.96822C8.33361 3.21603 7.59703 3.7852 7.22605 4.67575C7.16292 11.0228 7.14187 17.37 7.16292 23.7173C25.2198 23.7 43.2766 23.7173 61.3335 23.769C63.2372 23.9676 64.4577 24.8127 64.9954 26.3044ZM19.6638 7.26291C21.476 7.35092 22.6334 8.10983 23.1363 9.53961C23.1994 10.2286 23.2204 10.9186 23.1994 11.6093C20.9686 11.6093 18.7379 11.6093 16.507 11.6093C16.0195 9.36862 17.0717 7.91981 19.6638 7.26291ZM4.38494 25.994C23.1994 25.9767 42.0139 25.994 60.8284 26.0457C61.9853 26.1999 62.3851 26.7345 62.028 27.6497C61.8213 27.8888 61.5477 28.044 61.2072 28.1154C42.2244 28.1845 23.2415 28.1845 4.25866 28.1154C3.1241 27.8252 2.85051 27.256 3.4379 26.4079C3.72267 26.201 4.03835 26.0631 4.38494 25.994ZM4.38494 30.4439C23.2415 30.4439 42.0982 30.4439 60.9547 30.4439C60.9909 32.5848 60.9278 34.7236 60.7653 36.86C59.8656 41.2191 56.9404 44.2719 51.9894 46.0186C50.6436 46.4409 49.2546 46.7169 47.8224 46.8465C37.7207 46.9155 27.6189 46.9155 17.5172 46.8465C11.5483 46.2569 7.44448 43.6869 5.2057 39.1367C4.91566 38.3929 4.7052 37.6339 4.57434 36.86C4.41186 34.7236 4.34872 32.5848 4.38494 30.4439Z" fill="#0A0A0A"/>
</svg>
