<svg width="22" height="22" viewBox="0 0 22 22" fill="none" xmlns="http://www.w3.org/2000/svg">
<g id="Heart">
<path id="Vector" d="M11.182 18.3611C11.182 18.3611 2.81714 13.6768 2.81714 7.98867C2.81714 6.98311 3.16553 6.00862 3.80304 5.23098C4.44055 4.45334 5.3278 3.9206 6.31383 3.72339C7.29986 3.52619 8.32376 3.6767 9.21132 4.14932C10.0989 4.62195 10.7953 5.38749 11.182 6.31569V6.31569C11.5688 5.38749 12.2652 4.62195 13.1528 4.14932C14.0403 3.6767 15.0642 3.52619 16.0502 3.72339C17.0363 3.9206 17.9235 4.45334 18.561 5.23098C19.1985 6.00862 19.5469 6.98311 19.5469 7.98867C19.5469 13.6768 11.182 18.3611 11.182 18.3611Z" stroke="#4A60A1" stroke-width="1.38209" stroke-linecap="round" stroke-linejoin="round"/>
</g>
</svg>
