<svg width="33" height="28" viewBox="0 0 33 28" fill="none" xmlns="http://www.w3.org/2000/svg">
<path d="M22.7064 25.52V22.8534C22.7064 21.4389 22.1445 20.0823 21.1443 19.0821C20.1442 18.0819 18.7876 17.52 17.3731 17.52H6.70644C5.29195 17.52 3.9354 18.0819 2.93521 19.0821C1.93501 20.0823 1.37311 21.4389 1.37311 22.8534V25.52M30.7064 25.52V22.8534C30.7056 21.6717 30.3123 20.5237 29.5883 19.5898C28.8643 18.6558 27.8506 17.9888 26.7064 17.6934M21.3731 1.69335C22.5203 1.98709 23.5372 2.65429 24.2633 3.58977C24.9894 4.52525 25.3836 5.67579 25.3836 6.86002C25.3836 8.04425 24.9894 9.19479 24.2633 10.1303C23.5372 11.0658 22.5203 11.733 21.3731 12.0267M17.3731 6.85335C17.3731 9.79887 14.9853 12.1867 12.0398 12.1867C9.09426 12.1867 6.70644 9.79887 6.70644 6.85335C6.70644 3.90783 9.09426 1.52002 12.0398 1.52002C14.9853 1.52002 17.3731 3.90783 17.3731 6.85335Z" stroke="#FEF7FF" stroke-width="3" stroke-linecap="round" stroke-linejoin="round"/>
</svg>
