<svg width="23" height="22" viewBox="0 0 23 22" fill="none" xmlns="http://www.w3.org/2000/svg">
<g id="ShareNetwork">
<path id="Vector" d="M6.00001 13.6769C7.47835 13.6769 8.67678 12.4785 8.67678 11.0001C8.67678 9.52179 7.47835 8.32336 6.00001 8.32336C4.52167 8.32336 3.32324 9.52179 3.32324 11.0001C3.32324 12.4785 4.52167 13.6769 6.00001 13.6769Z" stroke="#4A60A1" stroke-width="1.38209" stroke-linecap="round" stroke-linejoin="round"/>
<path id="Vector_2" d="M15.3689 19.6995C16.8472 19.6995 18.0457 18.5011 18.0457 17.0227C18.0457 15.5444 16.8472 14.3459 15.3689 14.3459C13.8906 14.3459 12.6921 15.5444 12.6921 17.0227C12.6921 18.5011 13.8906 19.6995 15.3689 19.6995Z" stroke="#4A60A1" stroke-width="1.38209" stroke-linecap="round" stroke-linejoin="round"/>
<path id="Vector_3" d="M15.3689 7.65407C16.8472 7.65407 18.0457 6.45564 18.0457 4.9773C18.0457 3.49897 16.8472 2.30054 15.3689 2.30054C13.8906 2.30054 12.6921 3.49897 12.6921 4.9773C12.6921 6.45564 13.8906 7.65407 15.3689 7.65407Z" stroke="#4A60A1" stroke-width="1.38209" stroke-linecap="round" stroke-linejoin="round"/>
<path id="Vector_4" d="M13.1186 6.42444L8.25024 9.55291" stroke="#4A60A1" stroke-width="1.38209" stroke-linecap="round" stroke-linejoin="round"/>
<path id="Vector_5" d="M8.25024 12.4471L13.1186 15.5756" stroke="#4A60A1" stroke-width="1.38209" stroke-linecap="round" stroke-linejoin="round"/>
</g>
</svg>
