<svg width="16" height="16" viewBox="0 0 16 16" fill="none" xmlns="http://www.w3.org/2000/svg">
<path d="M15.5449 13.954C15.7563 14.1653 15.875 14.452 15.875 14.7509C15.875 15.0497 15.7563 15.3364 15.5449 15.5477C15.3336 15.7591 15.0469 15.8778 14.748 15.8778C14.4492 15.8778 14.1625 15.7591 13.9512 15.5477L7.99898 9.59367L2.04492 15.5459C1.83358 15.7572 1.54693 15.8759 1.24805 15.8759C0.949159 15.8759 0.662515 15.7572 0.45117 15.5459C0.239826 15.3345 0.121094 15.0479 0.121094 14.749C0.121094 14.4501 0.239826 14.1635 0.45117 13.9521L6.40523 7.99992L0.453045 2.04586C0.241701 1.83451 0.122969 1.54787 0.122969 1.24898C0.122969 0.950097 0.241701 0.663452 0.453045 0.452108C0.664389 0.240763 0.951034 0.122031 1.24992 0.122031C1.54881 0.122031 1.83545 0.240763 2.0468 0.452108L7.99898 6.40617L13.953 0.45117C14.1644 0.239826 14.451 0.121094 14.7499 0.121094C15.0488 0.121094 15.3354 0.239826 15.5468 0.45117C15.7581 0.662514 15.8769 0.949159 15.8769 1.24804C15.8769 1.54693 15.7581 1.83358 15.5468 2.04492L9.59273 7.99992L15.5449 13.954Z" fill="#4B4B4B"/>
</svg>
